<svg width="268" height="25" viewBox="0 0 268 25" fill="none" xmlns="http://www.w3.org/2000/svg">
<g clip-path="url(#clip0_1780_524)">
<path d="M9.56073 20.7464V22.4336C9.56073 23.3855 8.507 23.9808 7.66194 23.5065L1.89323 20.2646L0.631539 19.5498C0.240653 19.3283 0 18.9206 0 18.4789V10.55C0 9.59801 1.05442 9.0021 1.89879 9.47774L4.24063 10.7953C4.05145 11.4238 3.95686 12.0714 3.95686 12.7373C3.95686 13.4032 4.05145 14.05 4.22186 14.6792C4.58144 15.9003 5.24428 16.9909 6.11508 17.879C6.87251 18.6189 7.77461 19.2046 8.78382 19.5797C9.26652 19.7591 9.56003 20.2422 9.56003 20.7471L9.56073 20.7464Z" fill="white"/>
<path d="M19.1181 6.26558L17.6053 7.12309C17.1525 7.37994 16.569 7.37382 16.1635 7.04971C14.883 6.02504 13.2374 5.4135 11.4527 5.4135C9.66796 5.4135 8.02164 6.02504 6.74187 7.04971C6.33638 7.37382 5.75283 7.37994 5.30004 7.12309L3.78727 6.26558C2.94429 5.78789 2.94638 4.59811 3.79075 4.12314L10.8198 0.165116C11.2113 -0.0550387 11.6933 -0.0550387 12.0849 0.165116L19.1146 4.12246C19.959 4.59743 19.9611 5.78721 19.1181 6.2649V6.26558Z" fill="white"/>
<path d="M22.9064 10.5504V18.4793C22.9064 18.9203 22.6658 19.3287 22.2749 19.5502L21.0132 20.265L15.2445 23.5069C14.4001 23.9818 13.3457 23.3859 13.3457 22.434V20.7475C13.3457 20.2419 13.6399 19.7588 14.124 19.5794C15.1374 19.2044 16.0492 18.6186 16.7913 17.8787C17.6809 16.9913 18.3438 15.8816 18.6846 14.6606C18.855 14.0504 18.9496 13.4029 18.9496 12.737C18.9496 12.0711 18.855 11.4235 18.6658 10.795L21.0076 9.47746C21.852 9.00249 22.9064 9.59773 22.9064 10.5497V10.5504Z" fill="white"/>
<path d="M30.0223 22.8438V0.362305H39.7213C41.2447 0.362305 42.5479 0.618768 43.6285 1.1317C44.7099 1.64462 45.5437 2.36885 46.1306 3.30436C46.7176 4.23988 47.0107 5.37139 47.0107 6.69887C47.0107 7.72473 46.727 8.68551 46.1612 9.58045C45.5946 10.4762 44.6942 11.2149 43.4584 11.7983V9.8974C44.5908 10.32 45.4865 10.8429 46.1455 11.4668C46.8046 12.0907 47.2677 12.7843 47.5357 13.5491C47.8029 14.3139 47.9369 15.1185 47.9369 15.963C47.9369 18.1157 47.2113 19.8007 45.7592 21.0172C44.3071 22.2344 42.2947 22.8431 39.7205 22.8431H30.0215L30.0223 22.8438ZM34.2233 9.0836H39.9376C40.8027 9.0836 41.4923 8.83786 42.0072 8.34407C42.522 7.85104 42.779 7.21256 42.779 6.42786C42.779 5.64316 42.5212 5.01999 42.0072 4.55683C41.4923 4.09443 40.8027 3.86246 39.9376 3.86246H34.2233V9.08284V9.0836ZM34.2233 19.2227H40.1539C41.2447 19.2227 42.1153 18.9265 42.7641 18.3324C43.413 17.7391 43.7374 16.9498 43.7374 15.9637C43.7374 14.9777 43.413 14.183 42.7641 13.5798C42.1153 12.9765 41.2455 12.6741 40.1539 12.6741H34.2233V19.2227V19.2227Z" fill="white"/>
<path d="M50.6562 22.8436V0H54.7029V22.8436H50.6562Z" fill="white"/>
<path d="M66.2864 23.2058C64.6384 23.2058 63.1409 22.8338 61.7923 22.0896C60.4437 21.3455 59.3724 20.3296 58.5802 19.0419C57.7871 17.755 57.3906 16.2859 57.3906 14.6361C57.3906 12.9863 57.7871 11.518 58.5802 10.2303C59.3724 8.94339 60.4382 7.92673 61.7774 7.1826C63.1159 6.43847 64.6189 6.06641 66.2872 6.06641C67.9556 6.06641 69.4272 6.43924 70.7657 7.1826C72.1041 7.92673 73.1699 8.93803 73.9629 10.215C74.7552 11.4927 75.1525 12.9664 75.1525 14.6361C75.1525 16.3058 74.7512 17.755 73.948 19.0419C73.1448 20.3296 72.0736 21.3455 70.7359 22.0896C69.3975 22.8345 67.9148 23.2058 66.288 23.2058H66.2864ZM66.2864 19.5847C67.1923 19.5847 67.99 19.3734 68.6804 18.9508C69.37 18.5282 69.9162 17.9403 70.3174 17.1854C70.7187 16.4306 70.9201 15.5816 70.9201 14.6354C70.9201 13.6891 70.7194 12.8202 70.3174 12.0853C69.9162 11.3511 69.37 10.7677 68.6804 10.3352C67.99 9.90264 67.1923 9.68676 66.2864 9.68676C65.3806 9.68676 64.546 9.90341 63.8462 10.3352C63.1456 10.7677 62.5955 11.3511 62.1935 12.0853C61.7923 12.8202 61.5909 13.6692 61.5909 14.6354C61.5909 15.6015 61.7915 16.4306 62.1935 17.1854C62.5947 17.9395 63.1456 18.5282 63.8462 18.9508C64.546 19.3734 65.3594 19.5847 66.2864 19.5847Z" fill="white"/>
<path d="M85.9302 23.2058C84.2618 23.2058 82.7643 22.8284 81.4361 22.0743C80.1078 21.3203 79.0624 20.2936 78.3007 18.996C77.539 17.6984 77.1582 16.2346 77.1582 14.6055C77.1582 12.9764 77.539 11.518 78.3007 10.2303C79.0624 8.94339 80.1078 7.92673 81.4361 7.1826C82.7643 6.43847 84.2626 6.06641 85.9302 6.06641C87.1244 6.06641 88.2364 6.27311 89.2661 6.68498C90.2958 7.09762 91.186 7.66108 91.9383 8.37458C92.6898 9.08885 93.2305 9.93939 93.5596 10.9247L90.0074 12.4336C89.6987 11.6091 89.1784 10.9453 88.4472 10.4416C87.7161 9.93863 86.8768 9.68752 85.9302 9.68752C85.0447 9.68752 84.2571 9.89882 83.5675 10.3214C82.8772 10.744 82.3364 11.3274 81.9462 12.0715C81.5544 12.8156 81.3593 13.6707 81.3593 14.6361C81.3593 15.6015 81.5544 16.4574 81.9462 17.2008C82.3372 17.9449 82.8779 18.5282 83.5675 18.9508C84.2571 19.3734 85.0447 19.5847 85.9302 19.5847C86.898 19.5847 87.742 19.3336 88.4629 18.8306C89.1838 18.3277 89.6987 17.654 90.0074 16.8088L93.5596 18.3782C93.2297 19.3038 92.6945 20.1336 91.9532 20.8678C91.2119 21.6027 90.3264 22.1754 89.2967 22.588C88.267 22.9999 87.1448 23.2066 85.9302 23.2066V23.2058Z" fill="white"/>
<path d="M96.248 22.8436V0H100.295V14.9675L98.7502 14.5151L106.658 6.42767H111.693L105.484 13.036L111.816 22.8436H107.182L101.684 14.3336L104.094 13.8506L99.0284 19.1621L100.295 16.7482V22.8436H96.248V22.8436Z" fill="white"/>
<path d="M120.093 23.2056C118.301 23.2056 116.741 22.7884 115.413 21.9532C114.085 21.1187 113.173 19.9872 112.68 18.5587L115.707 17.1401C116.139 18.0656 116.741 18.7899 117.514 19.3127C118.286 19.8364 119.145 20.0974 120.093 20.0974C120.834 20.0974 121.421 19.9367 121.854 19.6144C122.286 19.2928 122.503 18.8702 122.503 18.3474C122.503 18.0258 122.415 17.7586 122.24 17.5473C122.064 17.3361 121.828 17.1554 121.529 17.0038C121.231 16.853 120.906 16.7274 120.556 16.6264L117.807 15.8723C116.386 15.4704 115.31 14.8564 114.579 14.0319C113.848 13.2074 113.483 12.232 113.483 11.1051C113.483 10.0992 113.745 9.21878 114.27 8.4647C114.795 7.71062 115.527 7.12191 116.464 6.69932C117.4 6.27673 118.476 6.06543 119.692 6.06543C121.277 6.06543 122.677 6.43826 123.893 7.18162C125.107 7.92575 125.972 8.97227 126.487 10.3197L123.398 11.7383C123.11 10.9941 122.626 10.4008 121.946 9.95755C121.267 9.51506 120.504 9.29381 119.66 9.29381C118.981 9.29381 118.445 9.44463 118.054 9.74626C117.662 10.0479 117.467 10.4406 117.467 10.9229C117.467 11.2246 117.549 11.4864 117.714 11.7076C117.878 11.9296 118.11 12.1103 118.409 12.2512C118.707 12.392 119.052 12.523 119.444 12.6431L122.131 13.4279C123.51 13.8305 124.576 14.4338 125.328 15.2384C126.08 16.043 126.456 17.0291 126.456 18.1958C126.456 19.1818 126.188 20.0515 125.653 20.8064C125.117 21.5604 124.375 22.1491 123.429 22.5717C122.481 22.9943 121.369 23.2056 120.093 23.2056V23.2056Z" fill="white"/>
<path d="M129.203 22.8435V6.42754H133.002V10.2301L132.57 9.59621C132.878 8.40958 133.497 7.52459 134.423 6.94047C135.35 6.35711 136.441 6.06543 137.697 6.06543C139.076 6.06543 140.292 6.41759 141.342 7.12191C142.392 7.82623 143.071 8.75179 143.381 9.89784L142.238 9.98818C142.753 8.68059 143.525 7.69991 144.555 7.04612C145.584 6.39233 146.768 6.06543 148.107 6.06543C149.301 6.06543 150.367 6.32725 151.304 6.85013C152.241 7.37378 152.977 8.10259 153.512 9.03811C154.047 9.97363 154.315 11.0554 154.315 12.2818V22.8435H150.269V13.2173C150.269 12.4931 150.135 11.8699 149.868 11.3463C149.6 10.8234 149.229 10.4161 148.756 10.1244C148.281 9.83277 147.705 9.68654 147.026 9.68654C146.387 9.68654 145.822 9.83277 145.327 10.1244C144.833 10.4161 144.452 10.8234 144.185 11.3463C143.917 11.8699 143.783 12.4931 143.783 13.2173V22.8435H139.737V13.2173C139.737 12.4931 139.603 11.8699 139.335 11.3463C139.067 10.8234 138.691 10.4161 138.208 10.1244C137.724 9.83277 137.152 9.68654 136.493 9.68654C135.834 9.68654 135.289 9.83277 134.794 10.1244C134.3 10.4161 133.919 10.8234 133.652 11.3463C133.384 11.8699 133.251 12.4931 133.251 13.2173V22.8435H129.204H129.203Z" fill="white"/>
<path d="M157.375 4.58668V0.362305H161.422V4.58668H157.375ZM157.375 22.8431V6.42786H161.422V22.8438H157.375V22.8431Z" fill="white"/>
<path d="M172.447 23.0241C170.552 23.0241 169.085 22.5165 168.046 21.4998C167.006 20.4839 166.485 19.0508 166.485 17.1997V9.95742H163.582V6.42664H163.891C164.714 6.42664 165.353 6.21535 165.806 5.79276C166.259 5.37017 166.485 4.75695 166.485 3.95234V2.68457H170.532V6.42664H174.393V9.95742H170.532V16.9884C170.532 17.5319 170.629 17.9943 170.826 18.3763C171.021 18.7591 171.331 19.0508 171.753 19.2514C172.175 19.4527 172.715 19.553 173.374 19.553C173.518 19.553 173.688 19.543 173.884 19.5231C174.08 19.5032 174.27 19.4833 174.455 19.4627V22.8426C174.167 22.8824 173.837 22.923 173.467 22.9636C173.096 23.0034 172.756 23.0241 172.447 23.0241V23.0241Z" fill="white"/>
<path d="M177.174 22.8436V0H181.221V9.65605L180.665 9.08264C181.056 8.09736 181.7 7.34788 182.596 6.83418C183.491 6.32126 184.536 6.06479 185.731 6.06479C186.926 6.06479 188.063 6.32662 189.021 6.8495C189.978 7.37314 190.724 8.10196 191.26 9.03747C191.796 9.97299 192.064 11.0547 192.064 12.2812V22.8429H188.017V13.2167C188.017 12.4925 187.873 11.8693 187.584 11.3456C187.296 10.8228 186.899 10.4155 186.395 10.1238C185.89 9.83213 185.299 9.68591 184.618 9.68591C183.938 9.68591 183.372 9.83213 182.858 10.1238C182.343 10.4155 181.941 10.8228 181.653 11.3456C181.365 11.8693 181.221 12.4925 181.221 13.2167V22.8429H177.174V22.8436Z" fill="white"/>
<path d="M201.082 22.8438V0.362305H203.553V20.5801H213.746V22.8431H201.082V22.8438Z" fill="white"/>
<path d="M221.561 23.2053C220.511 23.2053 219.574 23.0093 218.75 22.6165C217.927 22.2246 217.278 21.6864 216.805 21.002C216.33 20.3183 216.094 19.5336 216.094 18.6479C216.094 17.7621 216.279 17.0333 216.649 16.3397C217.02 15.6453 217.596 15.0574 218.379 14.5743C219.161 14.0912 220.16 13.7498 221.375 13.5484L227.862 12.492V14.5437L221.931 15.5091C220.737 15.7104 219.877 16.0825 219.352 16.6252C218.827 17.168 218.565 17.8126 218.565 18.5568C218.565 19.3009 218.858 19.895 219.445 20.3972C220.032 20.9002 220.788 21.1513 221.715 21.1513C222.847 21.1513 223.835 20.9147 224.68 20.4423C225.524 19.97 226.183 19.3307 226.657 18.5261C227.13 17.7215 227.368 16.8266 227.368 15.8405V11.7364C227.368 10.771 227.007 9.98628 226.286 9.38225C225.566 8.77899 224.628 8.47659 223.476 8.47659C222.466 8.47659 221.581 8.7231 220.819 9.21613C220.057 9.70915 219.491 10.3476 219.12 11.1323L217.02 10.0161C217.329 9.33249 217.818 8.70856 218.487 8.1451C219.156 7.58241 219.923 7.13456 220.789 6.8023C221.654 6.47005 222.549 6.30469 223.476 6.30469C224.69 6.30469 225.766 6.53589 226.703 6.99905C227.641 7.46222 228.372 8.1007 228.897 8.91526C229.422 9.72982 229.684 10.6707 229.684 11.7371V22.8424H227.368V19.6132L227.708 19.9455C227.42 20.5488 226.971 21.0977 226.364 21.5899C225.757 22.0829 225.046 22.4757 224.233 22.7666C223.419 23.0583 222.528 23.2045 221.56 23.2045L221.561 23.2053Z" fill="white"/>
<path d="M242.44 23.2058C241.02 23.2058 239.738 22.8888 238.595 22.2549C237.452 21.621 236.592 20.7207 236.016 19.554L236.387 19.2218V22.8429H234.07V0H236.387V10.2899L236.016 9.65605C236.675 8.6302 237.555 7.81564 238.657 7.21161C239.758 6.60834 241.02 6.30595 242.441 6.30595C244.006 6.30595 245.401 6.67342 246.626 7.40759C247.851 8.14253 248.82 9.14312 249.53 10.4101C250.241 11.6779 250.596 13.1263 250.596 14.7555C250.596 16.3846 250.241 17.8085 249.53 19.0855C248.819 20.3632 247.851 21.3692 246.626 22.1033C245.401 22.8383 244.006 23.205 242.441 23.205L242.44 23.2058ZM242.316 20.9428C243.428 20.9428 244.422 20.671 245.297 20.1282C246.173 19.5854 246.862 18.8459 247.367 17.9104C247.872 16.9748 248.124 15.9237 248.124 14.757C248.124 13.5903 247.872 12.5139 247.367 11.5883C246.862 10.6635 246.173 9.92859 245.297 9.38581C244.422 8.84226 243.428 8.57125 242.316 8.57125C241.205 8.57125 240.201 8.84302 239.305 9.38581C238.409 9.92936 237.699 10.6681 237.173 11.6036C236.648 12.5392 236.386 13.5903 236.386 14.757C236.386 15.9237 236.648 16.9748 237.173 17.9104C237.699 18.8459 238.409 19.5854 239.305 20.1282C240.201 20.671 241.205 20.9428 242.316 20.9428Z" fill="white"/>
<path d="M260.048 23.2059C258.461 23.2059 257.071 22.8139 255.878 22.0292C254.684 21.2445 253.818 20.1789 253.283 18.8307L255.229 17.925C255.702 18.9111 256.367 19.6958 257.221 20.2791C258.075 20.8625 259.017 21.1542 260.048 21.1542C261.078 21.1542 261.87 20.9176 262.55 20.4453C263.229 19.9729 263.569 19.3543 263.569 18.5895C263.569 18.0269 263.404 17.5782 263.075 17.2468C262.745 16.9145 262.364 16.658 261.932 16.4774C261.5 16.2959 261.119 16.1658 260.79 16.0854L258.411 15.4216C256.887 14.9991 255.786 14.4057 255.106 13.6409C254.427 12.8769 254.086 11.9919 254.086 10.9852C254.086 10.0397 254.333 9.21523 254.828 8.51091C255.322 7.80659 255.991 7.26381 256.835 6.88102C257.679 6.49901 258.617 6.30762 259.646 6.30762C261.047 6.30762 262.318 6.66514 263.461 7.37864C264.604 8.09291 265.411 9.08355 265.886 10.3513L263.908 11.257C263.496 10.3513 262.905 9.64241 262.132 9.12948C261.36 8.61656 260.5 8.36009 259.553 8.36009C258.606 8.36009 257.885 8.59129 257.329 9.05446C256.773 9.51762 256.495 10.101 256.495 10.8045C256.495 11.3481 256.639 11.7806 256.928 12.1022C257.216 12.4245 257.551 12.6656 257.932 12.8264C258.313 12.9879 258.647 13.1081 258.936 13.1885L261.685 13.9732C263.023 14.356 264.068 14.9493 264.82 15.7539C265.571 16.5585 265.947 17.504 265.947 18.5903C265.947 19.4761 265.695 20.27 265.191 20.9743C264.686 21.6786 263.991 22.2267 263.105 22.6187C262.22 23.0107 261.2 23.2074 260.048 23.2074V23.2059Z" fill="white"/>
</g>
<defs>
<clipPath id="clip0_1780_524">
<rect width="267.611" height="24.005" fill="white"/>
</clipPath>
</defs>
</svg>
