<svg width="144" height="59" viewBox="0 0 144 59" fill="none" xmlns="http://www.w3.org/2000/svg">
<g clip-path="url(#clip0_4148_44644)">
<path fill-rule="evenodd" clip-rule="evenodd" d="M30.137 0.500244V35.5002C30.137 35.7762 29.913 36.0002 29.637 36.0002H25.966C24.27 36.0002 22.689 35.1402 21.768 33.7162L5.2455 8.17724L5.8115 20.9317V35.5002C5.8115 35.7762 5.5875 36.0002 5.3115 36.0002H0.5C0.224 36.0002 0 35.7762 0 35.5002V0.500244C0 0.224244 0.224 0.000244141 0.5 0.000244141H4.1225C5.817 0.000244141 7.3965 0.858744 8.318 2.28074L24.8395 27.7717L24.3255 15.0687V0.500244C24.3255 0.224244 24.5495 0.000244141 24.8255 0.000244141H29.637C29.913 0.000244141 30.137 0.224244 30.137 0.500244Z" fill="#24272A"/>
<path fill-rule="evenodd" clip-rule="evenodd" d="M78.3429 36.0002H73.2464C72.8949 36.0002 72.6534 35.6472 72.7804 35.3197L86.2684 0.479244C86.3804 0.190744 86.6579 0.000244141 86.9679 0.000244141H93.3454C93.6554 0.000244141 93.9334 0.190744 94.0449 0.479244L107.533 35.3197C107.66 35.6472 107.418 36.0002 107.067 36.0002H101.97C101.763 36.0002 101.577 35.8717 101.503 35.6772L90.6244 6.99274C90.4614 6.56274 89.8529 6.56274 89.6894 6.99274L78.8104 35.6772C78.7369 35.8717 78.5504 36.0002 78.3429 36.0002Z" fill="#24272A"/>
<path fill-rule="evenodd" clip-rule="evenodd" d="M143.893 35.1921L133.777 22.2686C139.486 21.1886 142.829 17.3316 142.829 11.4171C142.829 4.62912 138.405 0.00012207 130.588 0.00012207H116.475C116.061 0.00012207 115.725 0.336122 115.725 0.750122C115.725 3.40362 117.876 5.55462 120.529 5.55462H129.971C134.703 5.55462 136.966 7.97162 136.966 11.4686C136.966 14.9661 134.754 17.4346 129.971 17.4346H116.475C116.061 17.4346 115.725 17.7701 115.725 18.1846V35.5001C115.725 35.7761 115.949 36.0001 116.225 36.0001H121.037C121.313 36.0001 121.537 35.7761 121.537 35.5001V22.5776H127.091L135.876 34.0411C136.822 35.2761 138.289 36.0001 139.844 36.0001H143.499C143.916 36.0001 144.15 35.5201 143.893 35.1921Z" fill="#24272A"/>
<path fill-rule="evenodd" clip-rule="evenodd" d="M64.1143 30.446H47.4233C47.1468 30.446 46.9233 30.222 46.9233 29.946V20.9175C46.9233 20.6415 47.1468 20.4175 47.4233 20.4175H62.8288C63.1048 20.4175 63.3288 20.1935 63.3288 19.9175V15.3625C63.3288 15.0865 63.1048 14.8625 62.8288 14.8625H41.8613C41.4473 14.8625 41.1113 15.1985 41.1113 15.6125V35.25C41.1113 35.6645 41.4473 36 41.8613 36H64.1143C64.3908 36 64.6143 35.7765 64.6143 35.5V30.946C64.6143 30.67 64.3908 30.446 64.1143 30.446ZM64.1143 0H41.7793C41.4103 0 41.1113 0.2995 41.1113 0.668C41.1113 3.3665 43.2988 5.5545 45.9978 5.5545H64.1143C64.3908 5.5545 64.6143 5.3305 64.6143 5.0545V0.5C64.6143 0.224 64.3908 0 64.1143 0Z" fill="#24272A"/>
<path fill-rule="evenodd" clip-rule="evenodd" d="M2.1755 47.3294V50.5224C2.1755 50.6294 2.262 50.7159 2.369 50.7159H8.123C8.2295 50.7159 8.3165 50.8029 8.3165 50.9099V52.6014C8.3165 52.7084 8.2295 52.7954 8.123 52.7954H2.369C2.262 52.7954 2.1755 52.8819 2.1755 52.9889V58.3379C2.1755 58.4444 2.089 58.5314 1.982 58.5314H0.194C0.087 58.5314 0 58.4444 0 58.3379V45.2504C0 45.1434 0.087 45.0569 0.194 45.0569H8.6035C8.7105 45.0569 8.7975 45.1434 8.7975 45.2504V46.9424C8.7975 47.0489 8.7105 47.1359 8.6035 47.1359H2.369C2.262 47.1359 2.1755 47.2224 2.1755 47.3294Z" fill="#8FD6BD"/>
<path fill-rule="evenodd" clip-rule="evenodd" d="M14.9206 51.7942C14.9206 54.6047 16.9801 56.6832 19.7136 56.6832C22.4276 56.6832 24.4871 54.6047 24.4871 51.7942C24.4871 48.9837 22.4276 46.9047 19.7136 46.9047C16.9801 46.9047 14.9206 48.9837 14.9206 51.7942ZM26.7011 51.7942C26.6821 55.7592 23.6596 58.7622 19.7136 58.7622C15.7671 58.7622 12.7261 55.7592 12.7261 51.7942C12.7261 47.8287 15.7671 44.8257 19.7136 44.8257C23.6596 44.8257 26.6821 47.8287 26.7011 51.7942Z" fill="#8FD6BD"/>
<path fill-rule="evenodd" clip-rule="evenodd" d="M42.0233 45.0569C42.1303 45.0569 42.2168 45.1434 42.2168 45.2504V53.1609C42.2168 56.9144 39.8683 58.7624 36.7688 58.7624C33.6698 58.7624 31.3218 56.9144 31.3218 53.1609V45.2504C31.3218 45.1434 31.4083 45.0569 31.5153 45.0569H33.3413C33.4483 45.0569 33.5348 45.1434 33.5348 45.2504V53.0259C33.5348 55.6439 34.9018 56.6834 36.7688 56.6834C38.6363 56.6834 40.0028 55.6439 40.0028 53.0259V45.2504C40.0028 45.1434 40.0898 45.0569 40.1963 45.0569H42.0233Z" fill="#8FD6BD"/>
<path fill-rule="evenodd" clip-rule="evenodd" d="M58.5212 45.2503V58.3378C58.5212 58.4448 58.4347 58.5313 58.3277 58.5313H56.9952C56.3387 58.5313 55.7267 58.1983 55.3702 57.6473L49.2047 48.1178L49.4167 52.8913V58.3378C49.4167 58.4448 49.3297 58.5313 49.2227 58.5313H47.4347C47.3277 58.5313 47.2412 58.4448 47.2412 58.3378V45.2503C47.2412 45.1438 47.3277 45.0568 47.4347 45.0568H48.7492C49.4052 45.0568 50.0167 45.3893 50.3737 45.9398L56.5387 55.4513L56.3462 50.6973V45.2503C56.3462 45.1438 56.4332 45.0568 56.5397 45.0568H58.3277C58.4347 45.0568 58.5212 45.1438 58.5212 45.2503Z" fill="#8FD6BD"/>
<path fill-rule="evenodd" clip-rule="evenodd" d="M73.4618 51.7941C73.4618 49.0606 71.4788 47.1356 68.7648 47.1356H66.3988C66.2918 47.1356 66.2048 47.2221 66.2048 47.3291V56.2586C66.2048 56.3656 66.2918 56.4521 66.3988 56.4521H68.7648C71.4788 56.4521 73.4618 54.5466 73.4618 51.7941ZM75.6368 51.7941C75.6368 55.6821 72.6533 58.5311 68.7453 58.5311H64.2233C64.1163 58.5311 64.0298 58.4446 64.0298 58.3376V45.2501C64.0298 45.1436 64.1163 45.0566 64.2233 45.0566H68.7453C72.6723 45.0566 75.6368 47.8866 75.6368 51.7941Z" fill="#8FD6BD"/>
<path fill-rule="evenodd" clip-rule="evenodd" d="M86.7592 52.5906L84.9027 47.6906C84.8397 47.5241 84.6037 47.5241 84.5407 47.6906L82.6842 52.5906C82.6362 52.7171 82.7297 52.8526 82.8652 52.8526H86.5782C86.7137 52.8526 86.8072 52.7171 86.7592 52.5906ZM87.5137 54.9126H81.9297C81.8492 54.9126 81.7772 54.9621 81.7487 55.0376L80.4767 58.4061C80.4477 58.4816 80.3757 58.5311 80.2952 58.5311H78.4017C78.2657 58.5311 78.1722 58.3946 78.2212 58.2676L83.2882 45.1806C83.3167 45.1061 83.3887 45.0571 83.4687 45.0571H85.9747C86.0547 45.0571 86.1262 45.1061 86.1552 45.1806L91.2222 58.2676C91.2712 58.3946 91.1777 58.5311 91.0417 58.5311H89.1482C89.0677 58.5311 88.9957 58.4816 88.9672 58.4061L87.6947 55.0376C87.6662 54.9621 87.5942 54.9126 87.5137 54.9126Z" fill="#8FD6BD"/>
<path fill-rule="evenodd" clip-rule="evenodd" d="M102.931 47.1358H99.1985C99.0915 47.1358 99.0045 47.2223 99.0045 47.3293V58.3378C99.0045 58.4448 98.918 58.5313 98.8115 58.5313H97.0235C96.9165 58.5313 96.83 58.4448 96.83 58.3378V47.3293C96.83 47.2223 96.7435 47.1358 96.6365 47.1358H94.115C93.074 47.1358 92.23 46.2918 92.23 45.2503C92.23 45.1438 92.3165 45.0568 92.4235 45.0568H102.931C103.038 45.0568 103.124 45.1438 103.124 45.2503V46.9423C103.124 47.0493 103.038 47.1358 102.931 47.1358Z" fill="#8FD6BD"/>
<path fill-rule="evenodd" clip-rule="evenodd" d="M108.054 45.0569H109.842C109.949 45.0569 110.035 45.1434 110.035 45.2504V58.3379C110.035 58.4444 109.949 58.5314 109.842 58.5314H108.054C107.947 58.5314 107.86 58.4444 107.86 58.3379V45.2504C107.86 45.1434 107.947 45.0569 108.054 45.0569Z" fill="#8FD6BD"/>
<path fill-rule="evenodd" clip-rule="evenodd" d="M116.869 51.7942C116.869 54.6047 118.929 56.6832 121.662 56.6832C124.376 56.6832 126.436 54.6047 126.436 51.7942C126.436 48.9837 124.376 46.9047 121.662 46.9047C118.929 46.9047 116.869 48.9837 116.869 51.7942ZM128.65 51.7942C128.63 55.7592 125.608 58.7622 121.662 58.7622C117.716 58.7622 114.675 55.7592 114.675 51.7942C114.675 47.8287 117.716 44.8257 121.662 44.8257C125.608 44.8257 128.63 47.8287 128.65 51.7942Z" fill="#8FD6BD"/>
<path fill-rule="evenodd" clip-rule="evenodd" d="M144 45.2503V58.3378C144 58.4448 143.914 58.5313 143.807 58.5313H142.474C141.817 58.5313 141.205 58.1983 140.849 57.6473L134.684 48.1178L134.895 52.8913V58.3378C134.895 58.4448 134.808 58.5313 134.702 58.5313H132.914C132.807 58.5313 132.72 58.4448 132.72 58.3378V45.2503C132.72 45.1438 132.807 45.0568 132.914 45.0568H134.228C134.884 45.0568 135.496 45.3893 135.853 45.9398L142.018 55.4513L141.825 50.6973V45.2503C141.825 45.1438 141.912 45.0568 142.019 45.0568H143.807C143.914 45.0568 144 45.1438 144 45.2503Z" fill="#8FD6BD"/>
</g>
<defs>
<clipPath id="clip0_4148_44644">
<rect width="144" height="59" fill="white"/>
</clipPath>
</defs>
</svg>
